<svg xmlns="http://www.w3.org/2000/svg" xmlns:xlink="http://www.w3.org/1999/xlink" width="378.975" height="703.25" viewBox="0 0 378.975 703.25">
  <defs>
    <clipPath id="clip-path">
      <rect id="Rechteck_11" data-name="Rechteck 11" width="378.975" height="304.75" fill="#b5137f"/>
    </clipPath>
  </defs>
  <g id="Background" transform="translate(3.975)">
    <rect id="Rechteck_13" data-name="Rechteck 13" width="375" height="399" fill="#b5137f"/>
    <g id="Splash" transform="translate(-5.102 378.145)">
      <g id="Gruppe_10" data-name="Gruppe 10" transform="translate(1.127 20.355)">
        <g id="Gruppe_9" data-name="Gruppe 9" clip-path="url(#clip-path)">
          <path id="Pfad_12" data-name="Pfad 12" d="M26.727,20.355H1.127V38.368S47.5,55.692,51.71,96.926a39.235,39.235,0,0,1,.168,3.974v45.773a12.508,12.508,0,0,0,10.552,12.54,12.222,12.222,0,0,0,13.829-12.082V111.675a37.786,37.786,0,0,1,1.682-11.393c2.767-8.75,9.7-22.369,25.991-22.092,23.973.407,26.005,46.974,26.005,46.974v89.478a12.5,12.5,0,0,0,10.552,12.54A12.221,12.221,0,0,0,154.316,215.1V126.9a22.026,22.026,0,0,1,.34-3.913c1.075-5.916,5.015-21.874,16.319-22.314,13.883-.542,13.883,27.494,13.883,27.494V312.459A12.508,12.508,0,0,0,195.409,325a12.223,12.223,0,0,0,13.829-12.082V110.589a20.417,20.417,0,0,1,.693-5.358c1.5-5.5,5.723-16.629,15.494-17.087,10.827-.508,15.456,15.363,16.7,20.69a13.685,13.685,0,0,1,.365,3.147v8.146a12.5,12.5,0,0,0,10.549,12.538,12.222,12.222,0,0,0,13.831-12.08V89.043a16.124,16.124,0,0,1,4.1-10.95c3.073-3.342,8.169-6.676,16.218-6.54,12.672.214,17,16.944,18.248,23.868a28.166,28.166,0,0,1,.443,5.024v57.038a12.5,12.5,0,0,0,10.552,12.54,12.22,12.22,0,0,0,13.829-12.08v-60c.069-7.027,2.223-57.288,49.844-57.54V20.355Z" transform="translate(-1.127 -39.344)" fill="#b5137f"/>
        </g>
      </g>
    </g>
  </g>
</svg>
